<mxfile host="Electron" agent="Mozilla/5.0 (Windows NT 10.0; Win64; x64) AppleWebKit/537.36 (KHTML, like Gecko) draw.io/26.0.4 Chrome/128.0.6613.186 Electron/32.2.5 Safari/537.36" version="26.0.4">
  <diagram name="Seite-1" id="A_g3wu7tmMTq1hy5sk6g">
    <mxGraphModel dx="1119" dy="1983" grid="1" gridSize="10" guides="1" tooltips="1" connect="1" arrows="1" fold="1" page="1" pageScale="1" pageWidth="827" pageHeight="1169" math="0" shadow="0">
      <root>
        <mxCell id="0" />
        <mxCell id="1" parent="0" />
        <mxCell id="KMq4BcZCBYI45DtCu0O9-1" value="Architektur des Showcase" style="shape=umlFrame;whiteSpace=wrap;html=1;pointerEvents=0;recursiveResize=0;container=1;collapsible=0;width=160;" vertex="1" parent="1">
          <mxGeometry y="-80" width="800" height="880" as="geometry" />
        </mxCell>
        <mxCell id="KMq4BcZCBYI45DtCu0O9-8" value="AWS" style="ellipse;shape=cloud;whiteSpace=wrap;html=1;fontStyle=5;verticalAlign=top;" vertex="1" parent="KMq4BcZCBYI45DtCu0O9-1">
          <mxGeometry x="400" y="40" width="360" height="150" as="geometry" />
        </mxCell>
        <mxCell id="KMq4BcZCBYI45DtCu0O9-11" value="Messdaten 02" style="shape=document;whiteSpace=wrap;html=1;boundedLbl=1;" vertex="1" parent="KMq4BcZCBYI45DtCu0O9-1">
          <mxGeometry x="540" y="90" width="60" height="70" as="geometry" />
        </mxCell>
        <mxCell id="KMq4BcZCBYI45DtCu0O9-12" value="Messdaten 01" style="shape=document;whiteSpace=wrap;html=1;boundedLbl=1;" vertex="1" parent="KMq4BcZCBYI45DtCu0O9-1">
          <mxGeometry x="500" y="100" width="60" height="70" as="geometry" />
        </mxCell>
        <mxCell id="KMq4BcZCBYI45DtCu0O9-7" value="PC" style="rounded=0;whiteSpace=wrap;html=1;verticalAlign=top;fontStyle=5" vertex="1" parent="KMq4BcZCBYI45DtCu0O9-1">
          <mxGeometry y="40" width="360" height="310" as="geometry" />
        </mxCell>
        <mxCell id="KMq4BcZCBYI45DtCu0O9-2" value="Messdaten von MetroPT2" style="shape=document;whiteSpace=wrap;html=1;boundedLbl=1;verticalAlign=top;" vertex="1" parent="KMq4BcZCBYI45DtCu0O9-1">
          <mxGeometry x="40" y="60" width="260" height="170" as="geometry" />
        </mxCell>
        <mxCell id="KMq4BcZCBYI45DtCu0O9-6" value="Messdaten 03" style="shape=document;whiteSpace=wrap;html=1;boundedLbl=1;" vertex="1" parent="KMq4BcZCBYI45DtCu0O9-1">
          <mxGeometry x="220" y="100" width="60" height="70" as="geometry" />
        </mxCell>
        <mxCell id="KMq4BcZCBYI45DtCu0O9-4" value="Trainings-daten" style="shape=document;whiteSpace=wrap;html=1;boundedLbl=1;" vertex="1" parent="KMq4BcZCBYI45DtCu0O9-1">
          <mxGeometry x="60" y="100" width="60" height="70" as="geometry" />
        </mxCell>
        <mxCell id="KMq4BcZCBYI45DtCu0O9-5" value="Messdaten 02" style="shape=document;whiteSpace=wrap;html=1;boundedLbl=1;" vertex="1" parent="KMq4BcZCBYI45DtCu0O9-1">
          <mxGeometry x="180" y="110" width="60" height="70" as="geometry" />
        </mxCell>
        <mxCell id="KMq4BcZCBYI45DtCu0O9-3" value="Messdaten 01" style="shape=document;whiteSpace=wrap;html=1;boundedLbl=1;" vertex="1" parent="KMq4BcZCBYI45DtCu0O9-1">
          <mxGeometry x="140" y="120" width="60" height="70" as="geometry" />
        </mxCell>
        <mxCell id="KMq4BcZCBYI45DtCu0O9-13" value="manuelle Ãœbertragung" style="shape=flexArrow;endArrow=classic;html=1;rounded=0;width=7;endSize=7.44;entryX=0.119;entryY=0.607;entryDx=0;entryDy=0;entryPerimeter=0;fillColor=#d5e8d4;strokeColor=#82b366;" edge="1" parent="KMq4BcZCBYI45DtCu0O9-1" target="KMq4BcZCBYI45DtCu0O9-8">
          <mxGeometry width="50" height="50" relative="1" as="geometry">
            <mxPoint x="280" y="130" as="sourcePoint" />
            <mxPoint x="330" y="80" as="targetPoint" />
          </mxGeometry>
        </mxCell>
        <mxCell id="KMq4BcZCBYI45DtCu0O9-14" value="Wartungsdatgen aus MetroPT2" style="shape=document;whiteSpace=wrap;html=1;boundedLbl=1;" vertex="1" parent="KMq4BcZCBYI45DtCu0O9-1">
          <mxGeometry x="40" y="250" width="120" height="70" as="geometry" />
        </mxCell>
        <mxCell id="KMq4BcZCBYI45DtCu0O9-15" value="Snowflake Database" style="strokeWidth=2;html=1;shape=mxgraph.flowchart.database;whiteSpace=wrap;fontStyle=1;verticalAlign=top;" vertex="1" parent="KMq4BcZCBYI45DtCu0O9-1">
          <mxGeometry x="40" y="380" width="720" height="310" as="geometry" />
        </mxCell>
        <mxCell id="KMq4BcZCBYI45DtCu0O9-18" value="Delta-Load" style="shape=process;whiteSpace=wrap;html=1;backgroundOutline=1;" vertex="1" parent="KMq4BcZCBYI45DtCu0O9-1">
          <mxGeometry x="510" y="410" width="120" height="60" as="geometry" />
        </mxCell>
        <mxCell id="KMq4BcZCBYI45DtCu0O9-19" value="Automatischer Load" style="shape=flexArrow;endArrow=classic;html=1;rounded=0;width=7;endSize=7.44;entryX=0.5;entryY=0;entryDx=0;entryDy=0;fillColor=#d5e8d4;strokeColor=#82b366;exitX=0.417;exitY=0.957;exitDx=0;exitDy=0;exitPerimeter=0;" edge="1" parent="KMq4BcZCBYI45DtCu0O9-1" source="KMq4BcZCBYI45DtCu0O9-11" target="KMq4BcZCBYI45DtCu0O9-18">
          <mxGeometry width="50" height="50" relative="1" as="geometry">
            <mxPoint x="520" y="260" as="sourcePoint" />
            <mxPoint x="683" y="261" as="targetPoint" />
          </mxGeometry>
        </mxCell>
        <mxCell id="KMq4BcZCBYI45DtCu0O9-21" value="Datenvorbereitung" style="rounded=0;whiteSpace=wrap;html=1;" vertex="1" parent="KMq4BcZCBYI45DtCu0O9-1">
          <mxGeometry x="190" y="540" width="120" height="60" as="geometry" />
        </mxCell>
        <mxCell id="KMq4BcZCBYI45DtCu0O9-22" value="KI-System" style="rounded=0;whiteSpace=wrap;html=1;" vertex="1" parent="KMq4BcZCBYI45DtCu0O9-1">
          <mxGeometry x="380" y="540" width="120" height="60" as="geometry" />
        </mxCell>
        <mxCell id="KMq4BcZCBYI45DtCu0O9-23" value="Ergebnisaufbereitung" style="rounded=0;whiteSpace=wrap;html=1;" vertex="1" parent="KMq4BcZCBYI45DtCu0O9-1">
          <mxGeometry x="570" y="540" width="120" height="60" as="geometry" />
        </mxCell>
        <mxCell id="KMq4BcZCBYI45DtCu0O9-62" value="Maintenance-Daten" style="shape=table;startSize=20;container=1;collapsible=0;childLayout=tableLayout;fixedRows=1;rowLines=0;fontStyle=0;strokeColor=default;fontSize=12;" vertex="1" parent="KMq4BcZCBYI45DtCu0O9-1">
          <mxGeometry x="210" y="410" width="100" height="80" as="geometry" />
        </mxCell>
        <mxCell id="KMq4BcZCBYI45DtCu0O9-63" value="" style="shape=tableRow;horizontal=0;startSize=0;swimlaneHead=0;swimlaneBody=0;top=0;left=0;bottom=0;right=0;collapsible=0;dropTarget=0;fillColor=none;points=[[0,0.5],[1,0.5]];portConstraint=eastwest;strokeColor=inherit;fontSize=16;" vertex="1" parent="KMq4BcZCBYI45DtCu0O9-62">
          <mxGeometry y="20" width="100" height="20" as="geometry" />
        </mxCell>
        <mxCell id="KMq4BcZCBYI45DtCu0O9-64" value="1" style="shape=partialRectangle;html=1;whiteSpace=wrap;connectable=0;fillColor=none;top=0;left=0;bottom=0;right=0;overflow=hidden;pointerEvents=1;strokeColor=inherit;fontSize=9;spacing=0;" vertex="1" parent="KMq4BcZCBYI45DtCu0O9-63">
          <mxGeometry width="24" height="20" as="geometry">
            <mxRectangle width="24" height="20" as="alternateBounds" />
          </mxGeometry>
        </mxCell>
        <mxCell id="KMq4BcZCBYI45DtCu0O9-65" value="Value 1" style="shape=partialRectangle;html=1;whiteSpace=wrap;connectable=0;fillColor=none;top=0;left=0;bottom=0;right=0;align=left;spacingLeft=6;overflow=hidden;strokeColor=inherit;fontSize=9;spacing=0;" vertex="1" parent="KMq4BcZCBYI45DtCu0O9-63">
          <mxGeometry x="24" width="76" height="20" as="geometry">
            <mxRectangle width="76" height="20" as="alternateBounds" />
          </mxGeometry>
        </mxCell>
        <mxCell id="KMq4BcZCBYI45DtCu0O9-66" value="" style="shape=tableRow;horizontal=0;startSize=0;swimlaneHead=0;swimlaneBody=0;top=0;left=0;bottom=0;right=0;collapsible=0;dropTarget=0;fillColor=none;points=[[0,0.5],[1,0.5]];portConstraint=eastwest;strokeColor=inherit;fontSize=16;" vertex="1" parent="KMq4BcZCBYI45DtCu0O9-62">
          <mxGeometry y="40" width="100" height="20" as="geometry" />
        </mxCell>
        <mxCell id="KMq4BcZCBYI45DtCu0O9-67" value="2" style="shape=partialRectangle;html=1;whiteSpace=wrap;connectable=0;fillColor=none;top=0;left=0;bottom=0;right=0;overflow=hidden;strokeColor=inherit;fontSize=9;spacing=0;" vertex="1" parent="KMq4BcZCBYI45DtCu0O9-66">
          <mxGeometry width="24" height="20" as="geometry">
            <mxRectangle width="24" height="20" as="alternateBounds" />
          </mxGeometry>
        </mxCell>
        <mxCell id="KMq4BcZCBYI45DtCu0O9-68" value="Value 2" style="shape=partialRectangle;html=1;whiteSpace=wrap;connectable=0;fillColor=none;top=0;left=0;bottom=0;right=0;align=left;spacingLeft=6;overflow=hidden;strokeColor=inherit;fontSize=9;spacing=0;" vertex="1" parent="KMq4BcZCBYI45DtCu0O9-66">
          <mxGeometry x="24" width="76" height="20" as="geometry">
            <mxRectangle width="76" height="20" as="alternateBounds" />
          </mxGeometry>
        </mxCell>
        <mxCell id="KMq4BcZCBYI45DtCu0O9-69" value="" style="shape=tableRow;horizontal=0;startSize=0;swimlaneHead=0;swimlaneBody=0;top=0;left=0;bottom=0;right=0;collapsible=0;dropTarget=0;fillColor=none;points=[[0,0.5],[1,0.5]];portConstraint=eastwest;strokeColor=inherit;fontSize=16;" vertex="1" parent="KMq4BcZCBYI45DtCu0O9-62">
          <mxGeometry y="60" width="100" height="20" as="geometry" />
        </mxCell>
        <mxCell id="KMq4BcZCBYI45DtCu0O9-70" value="3" style="shape=partialRectangle;html=1;whiteSpace=wrap;connectable=0;fillColor=none;top=0;left=0;bottom=0;right=0;overflow=hidden;strokeColor=inherit;fontSize=9;spacing=0;" vertex="1" parent="KMq4BcZCBYI45DtCu0O9-69">
          <mxGeometry width="24" height="20" as="geometry">
            <mxRectangle width="24" height="20" as="alternateBounds" />
          </mxGeometry>
        </mxCell>
        <mxCell id="KMq4BcZCBYI45DtCu0O9-71" value="Value 3" style="shape=partialRectangle;html=1;whiteSpace=wrap;connectable=0;fillColor=none;top=0;left=0;bottom=0;right=0;align=left;spacingLeft=6;overflow=hidden;strokeColor=inherit;fontSize=9;spacing=0;" vertex="1" parent="KMq4BcZCBYI45DtCu0O9-69">
          <mxGeometry x="24" width="76" height="20" as="geometry">
            <mxRectangle width="76" height="20" as="alternateBounds" />
          </mxGeometry>
        </mxCell>
        <mxCell id="KMq4BcZCBYI45DtCu0O9-83" value="Streamlit (Snowflake)" style="rounded=0;whiteSpace=wrap;html=1;verticalAlign=top;fontStyle=5" vertex="1" parent="KMq4BcZCBYI45DtCu0O9-1">
          <mxGeometry x="290" y="710" width="220" height="130" as="geometry" />
        </mxCell>
        <mxCell id="KMq4BcZCBYI45DtCu0O9-84" value="Vorhersagen" style="shadow=0;dashed=0;html=1;strokeColor=none;fillColor=#4495D1;labelPosition=center;verticalLabelPosition=bottom;verticalAlign=top;align=center;outlineConnect=0;shape=mxgraph.veeam.2d.report;" vertex="1" parent="KMq4BcZCBYI45DtCu0O9-1">
          <mxGeometry x="381.6" y="757.1" width="36.8" height="55.8" as="geometry" />
        </mxCell>
        <mxCell id="KMq4BcZCBYI45DtCu0O9-72" value="Messdaten" style="shape=table;startSize=20;container=1;collapsible=0;childLayout=tableLayout;fixedRows=1;rowLines=0;fontStyle=0;strokeColor=default;fontSize=12;" vertex="1" parent="KMq4BcZCBYI45DtCu0O9-1">
          <mxGeometry x="360" y="410" width="110" height="80" as="geometry" />
        </mxCell>
        <mxCell id="KMq4BcZCBYI45DtCu0O9-73" value="" style="shape=tableRow;horizontal=0;startSize=0;swimlaneHead=0;swimlaneBody=0;top=0;left=0;bottom=0;right=0;collapsible=0;dropTarget=0;fillColor=none;points=[[0,0.5],[1,0.5]];portConstraint=eastwest;strokeColor=inherit;fontSize=16;" vertex="1" parent="KMq4BcZCBYI45DtCu0O9-72">
          <mxGeometry y="20" width="110" height="20" as="geometry" />
        </mxCell>
        <mxCell id="KMq4BcZCBYI45DtCu0O9-74" value="1" style="shape=partialRectangle;html=1;whiteSpace=wrap;connectable=0;fillColor=none;top=0;left=0;bottom=0;right=0;overflow=hidden;pointerEvents=1;strokeColor=inherit;fontSize=9;spacing=0;" vertex="1" parent="KMq4BcZCBYI45DtCu0O9-73">
          <mxGeometry width="24" height="20" as="geometry">
            <mxRectangle width="24" height="20" as="alternateBounds" />
          </mxGeometry>
        </mxCell>
        <mxCell id="KMq4BcZCBYI45DtCu0O9-75" value="Value 1" style="shape=partialRectangle;html=1;whiteSpace=wrap;connectable=0;fillColor=none;top=0;left=0;bottom=0;right=0;align=left;spacingLeft=6;overflow=hidden;strokeColor=inherit;fontSize=9;spacing=0;" vertex="1" parent="KMq4BcZCBYI45DtCu0O9-73">
          <mxGeometry x="24" width="86" height="20" as="geometry">
            <mxRectangle width="86" height="20" as="alternateBounds" />
          </mxGeometry>
        </mxCell>
        <mxCell id="KMq4BcZCBYI45DtCu0O9-76" value="" style="shape=tableRow;horizontal=0;startSize=0;swimlaneHead=0;swimlaneBody=0;top=0;left=0;bottom=0;right=0;collapsible=0;dropTarget=0;fillColor=none;points=[[0,0.5],[1,0.5]];portConstraint=eastwest;strokeColor=inherit;fontSize=16;" vertex="1" parent="KMq4BcZCBYI45DtCu0O9-72">
          <mxGeometry y="40" width="110" height="20" as="geometry" />
        </mxCell>
        <mxCell id="KMq4BcZCBYI45DtCu0O9-77" value="2" style="shape=partialRectangle;html=1;whiteSpace=wrap;connectable=0;fillColor=none;top=0;left=0;bottom=0;right=0;overflow=hidden;strokeColor=inherit;fontSize=9;spacing=0;" vertex="1" parent="KMq4BcZCBYI45DtCu0O9-76">
          <mxGeometry width="24" height="20" as="geometry">
            <mxRectangle width="24" height="20" as="alternateBounds" />
          </mxGeometry>
        </mxCell>
        <mxCell id="KMq4BcZCBYI45DtCu0O9-78" value="Value 2" style="shape=partialRectangle;html=1;whiteSpace=wrap;connectable=0;fillColor=none;top=0;left=0;bottom=0;right=0;align=left;spacingLeft=6;overflow=hidden;strokeColor=inherit;fontSize=9;spacing=0;" vertex="1" parent="KMq4BcZCBYI45DtCu0O9-76">
          <mxGeometry x="24" width="86" height="20" as="geometry">
            <mxRectangle width="86" height="20" as="alternateBounds" />
          </mxGeometry>
        </mxCell>
        <mxCell id="KMq4BcZCBYI45DtCu0O9-79" value="" style="shape=tableRow;horizontal=0;startSize=0;swimlaneHead=0;swimlaneBody=0;top=0;left=0;bottom=0;right=0;collapsible=0;dropTarget=0;fillColor=none;points=[[0,0.5],[1,0.5]];portConstraint=eastwest;strokeColor=inherit;fontSize=16;" vertex="1" parent="KMq4BcZCBYI45DtCu0O9-72">
          <mxGeometry y="60" width="110" height="20" as="geometry" />
        </mxCell>
        <mxCell id="KMq4BcZCBYI45DtCu0O9-80" value="3" style="shape=partialRectangle;html=1;whiteSpace=wrap;connectable=0;fillColor=none;top=0;left=0;bottom=0;right=0;overflow=hidden;strokeColor=inherit;fontSize=9;spacing=0;" vertex="1" parent="KMq4BcZCBYI45DtCu0O9-79">
          <mxGeometry width="24" height="20" as="geometry">
            <mxRectangle width="24" height="20" as="alternateBounds" />
          </mxGeometry>
        </mxCell>
        <mxCell id="KMq4BcZCBYI45DtCu0O9-81" value="Value 3" style="shape=partialRectangle;html=1;whiteSpace=wrap;connectable=0;fillColor=none;top=0;left=0;bottom=0;right=0;align=left;spacingLeft=6;overflow=hidden;strokeColor=inherit;fontSize=9;spacing=0;" vertex="1" parent="KMq4BcZCBYI45DtCu0O9-79">
          <mxGeometry x="24" width="86" height="20" as="geometry">
            <mxRectangle width="86" height="20" as="alternateBounds" />
          </mxGeometry>
        </mxCell>
        <mxCell id="KMq4BcZCBYI45DtCu0O9-87" value="" style="html=1;shadow=0;dashed=0;align=center;verticalAlign=middle;shape=mxgraph.arrows2.bendArrow;dy=3;dx=22;notch=0;arrowHead=26;rounded=0;flipV=1;labelBackgroundColor=default;fillColor=#d5e8d4;strokeColor=#82b366;flipH=1;" vertex="1" parent="KMq4BcZCBYI45DtCu0O9-1">
          <mxGeometry x="420" y="600" width="210" height="200" as="geometry" />
        </mxCell>
        <mxCell id="KMq4BcZCBYI45DtCu0O9-88" value="" style="endArrow=blockThin;dashed=1;html=1;rounded=0;exitX=1;exitY=0.5;exitDx=0;exitDy=0;entryX=0;entryY=0.5;entryDx=0;entryDy=0;targetPerimeterSpacing=2;startArrow=none;startFill=0;endFill=1;strokeWidth=2;" edge="1" parent="KMq4BcZCBYI45DtCu0O9-1" source="KMq4BcZCBYI45DtCu0O9-21" target="KMq4BcZCBYI45DtCu0O9-22">
          <mxGeometry width="50" height="50" relative="1" as="geometry">
            <mxPoint x="330" y="570" as="sourcePoint" />
            <mxPoint x="380" y="520" as="targetPoint" />
          </mxGeometry>
        </mxCell>
        <mxCell id="KMq4BcZCBYI45DtCu0O9-89" value="" style="endArrow=blockThin;dashed=1;html=1;rounded=0;exitX=1;exitY=0.5;exitDx=0;exitDy=0;entryX=0;entryY=0.5;entryDx=0;entryDy=0;targetPerimeterSpacing=2;startArrow=none;startFill=0;endFill=1;strokeWidth=2;" edge="1" parent="KMq4BcZCBYI45DtCu0O9-1" source="KMq4BcZCBYI45DtCu0O9-22" target="KMq4BcZCBYI45DtCu0O9-23">
          <mxGeometry width="50" height="50" relative="1" as="geometry">
            <mxPoint x="460" y="620" as="sourcePoint" />
            <mxPoint x="530" y="620" as="targetPoint" />
          </mxGeometry>
        </mxCell>
        <mxCell id="KMq4BcZCBYI45DtCu0O9-90" value="" style="endArrow=blockThin;dashed=1;html=1;rounded=0;exitX=0.5;exitY=1;exitDx=0;exitDy=0;entryX=0.5;entryY=0;entryDx=0;entryDy=0;targetPerimeterSpacing=2;startArrow=none;startFill=0;endFill=1;strokeWidth=2;" edge="1" parent="KMq4BcZCBYI45DtCu0O9-1" source="KMq4BcZCBYI45DtCu0O9-18" target="KMq4BcZCBYI45DtCu0O9-21">
          <mxGeometry width="50" height="50" relative="1" as="geometry">
            <mxPoint x="330" y="590" as="sourcePoint" />
            <mxPoint x="400" y="590" as="targetPoint" />
            <Array as="points">
              <mxPoint x="570" y="510" />
              <mxPoint x="250" y="510" />
            </Array>
          </mxGeometry>
        </mxCell>
        <mxCell id="KMq4BcZCBYI45DtCu0O9-91" value="Autom. Load" style="shape=flexArrow;endArrow=classic;html=1;rounded=0;width=7;endSize=7.44;entryX=1.018;entryY=-0.1;entryDx=0;entryDy=0;fillColor=#d5e8d4;strokeColor=#82b366;exitX=0;exitY=0.5;exitDx=0;exitDy=0;entryPerimeter=0;" edge="1" parent="KMq4BcZCBYI45DtCu0O9-1" source="KMq4BcZCBYI45DtCu0O9-18" target="KMq4BcZCBYI45DtCu0O9-76">
          <mxGeometry x="-0.0219" width="50" height="50" relative="1" as="geometry">
            <mxPoint x="575" y="167" as="sourcePoint" />
            <mxPoint x="580" y="420" as="targetPoint" />
            <mxPoint as="offset" />
          </mxGeometry>
        </mxCell>
        <mxCell id="KMq4BcZCBYI45DtCu0O9-86" value="&lt;span style=&quot;color: rgb(0, 0, 0); font-family: Helvetica; font-size: 11px; font-style: normal; font-variant-ligatures: normal; font-variant-caps: normal; font-weight: 400; letter-spacing: normal; orphans: 2; text-align: center; text-indent: 0px; text-transform: none; widows: 2; word-spacing: 0px; -webkit-text-stroke-width: 0px; white-space: nowrap; background-color: rgb(255, 255, 255); text-decoration-thickness: initial; text-decoration-style: initial; text-decoration-color: initial; float: none; display: inline !important;&quot;&gt;manuellerLoad&lt;/span&gt;" style="html=1;shadow=0;dashed=0;align=center;verticalAlign=middle;shape=mxgraph.arrows2.bendArrow;dy=3.5;dx=22;notch=0;arrowHead=25;rounded=0;flipV=1;labelBackgroundColor=default;fillColor=#d5e8d4;strokeColor=#82b366;" vertex="1" parent="1">
          <mxGeometry x="110" y="230" width="100" height="160" as="geometry" />
        </mxCell>
      </root>
    </mxGraphModel>
  </diagram>
</mxfile>
